PathFileType	4	(X/Y/Z)	pose_F01_0-96.trc
DataRate	CameraRate	NumFrames	NumMarkers	Units	OrigDataRate	OrigDataStartFrame	OrigNumFrames
30	30	7	21	m	30	72	96
Frame#	Time	CHip			RHip			RKnee			RAnkle			RBigToe			RSmallToe			RHeel			LHip			LKnee			LAnkle			LBigToe			LSmallToe			LHeel			Neck			Nose			RShoulder			RElbow			RWrist			LShoulder			LElbow			LWrist			
		X1	Y1	Z1	X2	Y2	Z2	X3	Y3	Z3	X4	Y4	Z4	X5	Y5	Z5	X6	Y6	Z6	X7	Y7	Z7	X8	Y8	Z8	X9	Y9	Z9	X10	Y10	Z10	X11	Y11	Z11	X12	Y12	Z12	X13	Y13	Z13	X14	Y14	Z14	X15	Y15	Z15	X16	Y16	Z16	X17	Y17	Z17	X18	Y18	Z18	X19	Y19	Z19	X20	Y20	Z20	X21	Y21	Z21	
72	2.4	-0.2870018278291698	1.87960625597124	-0.49917354050268176	-0.2986384501223519	1.8760938645786092	-0.44224443980023403	-0.3005422629069747	1.7236077029463914	-0.4329685297718557													-0.2705723010285729	1.8830851231019072	-0.5605164027069263	-0.24955671374841953	1.739173920614283	-0.6121872894044261	-0.22768345988706337	1.5984317139533188	-0.6927641672076263	-0.20598612256652912	1.5656233513986184	-0.6916528683520922	-0.20098212549929032	1.5750370750960156	-0.72553069132267	-0.23352473967315582	1.589993081317514	-0.6931737855830903	-0.2871502252555174	2.046185653210397	-0.4780846368751948	-0.28676918576679883	2.086792321059625	-0.40253683905408966	-0.30932478957131176	2.0369706598142296	-0.40818910502847333	-0.3283880027125718	1.9957359884832147	-0.27779031803423815	-0.3161801200643405	2.058708457045256	-0.32434701248910547	-0.26304738352838086	2.05483766415166	-0.5557942514314492	-0.25246692603297904	1.9749324259556666	-0.5914174579412567	-0.24534240345829023	1.9027191661366438	-0.5667844469951857
73	2.433333333333333	-0.2872619270478894	1.8797606663979138	-0.49917323257074186	-0.3015666343499889	1.8764717768407861	-0.4433346399114798	-0.3005422629069747	1.7236077029463914	-0.4329685297718557													-0.2695696724447464	1.8834986116087922	-0.5573198796636197	-0.24735412057666115	1.738671003580775	-0.6144686304250897	-0.2277289918774491	1.5978683248046057	-0.693387741609871	-0.2054479670945425	1.5657792513152233	-0.690613054642994	-0.20058915555479107	1.5749798592292668	-0.7238954625508724	-0.2337533270332033	1.5897948048180772	-0.693124610885768	-0.28614833298738696	2.046345280945719	-0.48334748199897976	-0.28486593349434436	2.094625919889757	-0.4144694340952762	-0.307257374122374	2.03818577116691	-0.4102625870968329	-0.32747486174727364	2.0016537058664783	-0.27019988468213557	-0.31244629060478063	2.061123831729918	-0.32821969310318466	-0.26285654619507376	2.0552296163771313	-0.5642114780663121	-0.2500545692552675	1.9752078584576582	-0.6016161290273031	-0.24090152927816835	1.8959122286771666	-0.5814288606525886
74	2.466666666666667	-0.2863252368200133	1.8810580438181914	-0.49636997003670613	-0.2989068553716586	1.8765229380032808	-0.44235346733513153	-0.3005422629069747	1.7236077029463914	-0.4329685297718557													-0.26777188231381205	1.8867914686602993	-0.5598222657570058	-0.24752948546115328	1.7432352719778048	-0.6147155498094166	-0.22777452386783487	1.5973049356558928	-0.6940113160121157	-0.20490981162255584	1.5659351512318285	-0.689573240933896	-0.20019618561029184	1.5749226433625176	-0.7222602337790748	-0.2339819143932508	1.5895965283186402	-0.6930754361884459	-0.2841293685198376	2.0475806211682865	-0.48540962259646986	-0.2793106981533149	2.1001059407926848	-0.43017499737082726	-0.30727613671166015	2.038088230378153	-0.41021891186497894	-0.3220802452947655	2.0064329078795375	-0.2635137323033087	-0.3115073260793988	2.068919866050177	-0.3350215624426556	-0.2607760603294818	2.059067959045625	-0.5673079634443867	-0.24898765593692093	1.976190130268782	-0.6073471667483573	-0.23334259348150857	1.8976506935627702	-0.593760018062242
75	2.5	-0.28137655162079706	1.8775888488528651	-0.49699550226870665	-0.2958701504688785	1.8741426216811503	-0.4407392350996999	-0.3005422629069747	1.7236077029463914	-0.4329685297718557													-0.2649967007802738	1.8836479236823003	-0.5585499314147027	-0.2459745697196692	1.7420592014188807	-0.6162692621325141	-0.22782005585822063	1.59674154650718	-0.6946348904143603	-0.2043716561505692	1.5660910511484336	-0.6885334272247979	-0.19980321566579262	1.5748654274957685	-0.7206250050072772	-0.23421050175329833	1.5893982518192034	-0.6930262614911238	-0.2850348613074892	2.0500623601650942	-0.48902511361661805	-0.2774397001660614	2.105528843149848	-0.44154382665948805	-0.30718173755521216	2.040628537942	-0.41072848300774767	-0.32175265554011095	2.0111859585306604	-0.2639932336531114	-0.31074687164790765	2.0755580791080543	-0.3418726190552502	-0.2597314535336914	2.060410542543861	-0.5724379085241106	-0.24355500585040235	1.9749069989544137	-0.6169309196593399	-0.23115300577916642	1.8948715753785577	-0.6046077850810778
76	2.533333333333333	-0.2794492693329729	1.8790006739252607	-0.4993027978869707	-0.2948846599393804	1.875464947242458	-0.43783520844245916	-0.3005422629069747	1.7236077029463914	-0.4329685297718557													-0.26275267990367496	1.884715638851342	-0.5608396002960595	-0.24571118363050595	1.742308628882064	-0.6166001274617168	-0.2278655878486064	1.596178157358467	-0.695258464816605	-0.20383350067858255	1.5662469510650385	-0.6874936135156999	-0.1994102457212934	1.5748082116290196	-0.7189897762354795	-0.23443908911334582	1.5891999753197663	-0.6929770867938017	-0.28417455466902014	2.0505964670251107	-0.4947670897100462	-0.272667121321177	2.110814284411359	-0.45939643277682063	-0.3072466362185037	2.0421724369938006	-0.41121187194694775	-0.32027112385515477	2.0158514211587115	-0.26132479525738606	-0.30923747548458497	2.0710969370150276	-0.32922665362091436	-0.2585249628324001	2.0595341733241876	-0.5771991731856274	-0.24006567884821253	1.97667292275431	-0.6243936819122683	-0.22408165688426235	1.8994677809593867	-0.6204341165671081
77	2.566666666666667	-0.2797481200345302	1.87678560457775	-0.4989478981625181	-0.2953251440627545	1.8741890453180834	-0.4377294577732779	-0.3005422629069747	1.7236077029463914	-0.4329685297718557													-0.2622006097026611	1.8834464493259686	-0.5576549629602174	-0.24619209157380353	1.7410894515907214	-0.6159042752036092	-0.22809802902105866	1.5952587190863505	-0.6940735653074619	-0.20329534520659592	1.5664028509816437	-0.6864537998066018	-0.19901727577679418	1.5747509957622705	-0.717354547463682	-0.23568784154070768	1.5883358252735644	-0.6949686456520087	-0.2812985034198127	2.0504813872843504	-0.493780261264787	-0.26869165155602237	2.115932966732571	-0.46468090141632473	-0.30620400929503877	2.0394991318390625	-0.4075770228829228	-0.3201642129292923	2.018371984039855	-0.2616651892389752	-0.31253582349514764	2.076938601366948	-0.34053556365632215	-0.25852558216255905	2.0608429244357	-0.5777931439009322	-0.23996531091614656	1.9768960678172118	-0.6246285714007898	-0.2228468584587406	1.8993698121962266	-0.6259245696501649
78	2.6	-0.27947012433121604	1.8805618716696875	-0.49958547826662986	-0.2951785308672896	1.8767910395108403	-0.4381675977536579	-0.3005422629069747	1.7236077029463914	-0.4329685297718557													-0.2627629762423891	1.8859309089810377	-0.5611533869964107	-0.2458630196901842	1.7409338847095401	-0.6162595979525988	-0.22750249955349913	1.5942249945994942	-0.6955313504772602	-0.20390824644929942	1.5651021753923293	-0.6917106287025134	-0.20032444250192438	1.5732031508519835	-0.7233636995632678	-0.2347649899261699	1.5878153978602776	-0.6924216690216645	-0.28218119418356774	2.0517210855001324	-0.49676615696416493	-0.26768990975193324	2.1186978530486473	-0.47041901532631925	-0.3062757774907894	2.0423136029118933	-0.40875828721884383	-0.3189055724871616	2.0206544322826425	-0.2590419388807186	-0.31455256773370044	2.075839987351799	-0.3385308385888665	-0.25943060653549416	2.06111281767942	-0.5807571184768527	-0.2406147055196903	1.9795862089674006	-0.6276373420780906	-0.2204250916066819	1.9022547909533092	-0.6284583485245508
